PathFileType	4	(X/Y/Z)	C:\Users\Basilio\Documents\Thesis Gigler\squatting_fais\c3dfiles\075\SJ_pre1\markers_experimental.trc
DataRate	CameraRate	NumFrames	NumMarkers	Units	OrigDataRate	OrigDataStartFrame	OrigNumFrames
200.000000	200.000000	4	61	mm	200.000000	615	1642
Frame#	Time	FHD			LBHD			C7			T10			CLAV			LSHO			LUUPA			LMUPA			LDUPA			LLEP			LMEP			LRAD			LUL			LRFIN			RSHO			RUPA1			RMUPA			RDUPA			RLEP			RMEP			RRAD			RUL			RUFIN			LASI			RASI			USACR			LSACR			RSACR			LTHI1			LTHI2			LTHI3			LTHI4			LLFC			LMFC			LTIB1			LTIB2			LTIB3			LTIB4			LLMAL			LMMAL			LHEE			LMT1			LMT2			LMT5			RTHI			RTHI2			RTHI3			RTHI4			RLFC			RMFC			RTIB1			RTIB2			RTIB3			RTIB4			RLMAL			RMMAL			RHEE			RMT1			RMT2			RMT5			RBHD			
		X1	Y1	Z1	X2	Y2	Z2	X3	Y3	Z3	X4	Y4	Z4	X5	Y5	Z5	X6	Y6	Z6	X7	Y7	Z7	X8	Y8	Z8	X9	Y9	Z9	X10	Y10	Z10	X11	Y11	Z11	X12	Y12	Z12	X13	Y13	Z13	X14	Y14	Z14	X15	Y15	Z15	X16	Y16	Z16	X17	Y17	Z17	X18	Y18	Z18	X19	Y19	Z19	X20	Y20	Z20	X21	Y21	Z21	X22	Y22	Z22	X23	Y23	Z23	X24	Y24	Z24	X25	Y25	Z25	X26	Y26	Z26	X27	Y27	Z27	X28	Y28	Z28	X29	Y29	Z29	X30	Y30	Z30	X31	Y31	Z31	X32	Y32	Z32	X33	Y33	Z33	X34	Y34	Z34	X35	Y35	Z35	X36	Y36	Z36	X37	Y37	Z37	X38	Y38	Z38	X39	Y39	Z39	X40	Y40	Z40	X41	Y41	Z41	X42	Y42	Z42	X43	Y43	Z43	X44	Y44	Z44	X45	Y45	Z45	X46	Y46	Z46	X47	Y47	Z47	X48	Y48	Z48	X49	Y49	Z49	X50	Y50	Z50	X51	Y51	Z51	X52	Y52	Z52	X53	Y53	Z53	X54	Y54	Z54	X55	Y55	Z55	X56	Y56	Z56	X57	Y57	Z57	X58	Y58	Z58	X59	Y59	Z59	X60	Y60	Z60	X61	Y61	Z61	

616	3.075	112.7649307250977	1152.835205078125	-908.8464965820315	-73.87910461425783	1154.032104492188	-982.6080322265627	-167.1211090087891	1084.229248046875	-923.9816894531252	-401.2590332031251	860.6610107421877	-913.7944946289065	-90.7991180419922	945.4609985351565	-916.4538574218752	-83.24641418457033	999.194519042969	-1069.668701171875	-187.6915435791016	914.6713867187502	-1249.187255859375	-192.2740020751954	866.2574462890627	-1237.711181640625	-222.3777008056641	868.6604003906252	-1290.361450195313	-278.7836608886719	803.9990844726565	-1316.268432617188	-345.1037902832032	860.5620117187502	-1287.869873046875	-417.882293701172	699.0525512695314	-1129.894165039063	-390.4645996093751	637.6826171875001	-1166.159545898438	-384.294403076172	681.0821533203126	-1075.900756835938	-89.87462615966798	1007.41162109375	-765.1340942382814	-203.2441711425782	941.9258422851565	-592.5659790039064	-211.2825927734376	891.919860839844	-594.6201782226564	-245.5492095947266	907.1593017578127	-546.7915039062501	-291.9800109863282	857.5979614257815	-515.1661987304689	-368.8493347167969	890.6583251953127	-537.8922119140626	-404.6643066406251	703.9505004882814	-702.9999389648439	-369.5080871582032	655.5555419921876	-656.1048583984376	-358.9661560058594	690.9365234375001	-752.3132934570314	-370.0132751464844	645.5570678710939	-1025.74365234375	-362.5969238281251	666.5913696289064	-792.6431884765627	-477.0560302734376	772.632507324219	-911.7742919921877	-502.1704101562501	750.5089111328126	-937.1549072265627	-500.0954589843751	753.0092163085939	-879.9460449218752	-358.1510925292969	545.9018554687501	-1132.671752929688	-277.5126647949219	525.8834838867189	-1145.878173828125	-252.3145141601563	560.1502075195314	-1119.40966796875	-252.1692810058594	473.1748046875001	-1156.332885742188	-173.8616790771485	406.9835510253907	-1150.739868164063	-132.0374755859375	398.4960327148439	-1032.524658203125	-149.5491180419922	281.5520019531251	-1111.163330078125	-224.8211212158204	267.2835998535157	-1156.123413085938	-193.2116241455079	247.7691497802735	-1134.389038085938	-234.470443725586	185.7849273681641	-1097.670532226563	-371.7453918457032	92.05114746093751	-1102.974853515625	-331.4188232421876	101.2171707153321	-1021.713500976563	-427.4507141113282	51.59232330322267	-1048.418212890625	-214.7244720458985	51.61505126953126	-1064.490478515625	-222.3075866699219	56.82729721069337	-1113.290771484375	-267.9559631347657	41.95758438110352	-1159.814086914063	-385.5037536621095	571.6282958984376	-690.4953613281251	-320.4478149414063	571.2492065429689	-688.6404418945314	-306.5685424804688	595.8518066406251	-709.4529418945314	-271.5946350097657	504.7118225097657	-674.2056884765626	-166.7512969970703	409.0759277343751	-689.0261230468751	-133.9357604980469	401.3461303710939	-805.4849243164065	-161.8159942626953	267.1655578613282	-750.4819946289064	-245.3626556396485	224.2044219970704	-692.1157836914064	-218.2380523681641	205.2779541015626	-726.1183471679689	-247.5080871582032	170.9863433837891	-764.9368286132814	-364.6044006347657	92.2650833129883	-727.0103149414064	-325.8527832031251	106.2003936767578	-808.8164062500002	-419.6672363281251	52.62342453002931	-784.3228149414065	-208.6898651123047	57.60129928588869	-759.9487304687501	-216.8701629638672	58.03784561157228	-718.7841186523439	-257.8038940429688	35.9737892150879	-670.2986450195314	-24.21170616149903	1161.860595703125	-830.1267089843752	
617	3.08	113.3124542236328	1150.99267578125	-908.9226684570315	-73.25077056884767	1152.636474609375	-982.8760986328127	-166.612777709961	1082.8056640625	-923.938171386719	-401.2967529296876	859.5406494140627	-913.7247314453127	-90.4649124145508	943.8826293945315	-916.3960571289065	-83.43784332275392	997.6169433593752	-1069.801635742188	-187.822006225586	913.1269531250002	-1249.141967773438	-192.0353240966797	864.8164062500002	-1237.59033203125	-222.6507873535157	867.459899902344	-1290.448486328125	-278.1943664550782	802.5107421875002	-1316.019897460938	-345.1209716796876	859.5505371093752	-1287.765380859375	-418.7572326660157	698.2131347656251	-1129.807983398438	-390.8637084960939	636.9711914062501	-1166.053466796875	-384.1566772460939	680.4163818359376	-1075.771362304688	-89.50280761718751	1006.019287109375	-765.1175537109376	-202.8367462158204	940.659606933594	-592.5941772460939	-210.9778900146485	890.6303710937502	-594.4919433593751	-245.1523742675782	906.0911254882815	-546.7718505859376	-291.8045043945313	856.4365844726565	-515.0947875976564	-368.5974121093751	889.658142089844	-537.8109741210939	-404.9862365722657	703.1199951171876	-702.9550781250001	-369.9541320800782	654.3093261718751	-656.4009399414064	-359.2415466308594	690.1571655273439	-752.3505249023439	-370.2792663574219	644.7015380859376	-1025.664672851563	-362.8259277343751	665.9116210937501	-792.5823364257815	-477.2248840332032	771.6885375976565	-911.7038574218752	-502.609100341797	749.7363891601564	-937.0860595703127	-500.3334045410157	751.9880981445314	-879.7971191406252	-358.3519897460938	545.1923828125001	-1132.693603515625	-277.6190185546876	525.5320434570314	-1145.8505859375	-252.6470489501954	559.7545776367189	-1119.3623046875	-251.5311889648438	472.8560180664064	-1156.063354492188	-173.8153839111328	406.912322998047	-1150.675659179688	-131.9480743408203	398.3998413085939	-1032.5576171875	-149.4288330078125	281.4441223144532	-1111.180786132813	-224.7872314453126	267.2029724121094	-1156.138305664063	-193.1238708496094	247.6550445556641	-1134.367797851563	-234.3946380615235	185.8060302734375	-1097.680297851563	-371.8880004882813	92.09224700927736	-1102.980102539063	-331.4274902343751	101.1768493652344	-1021.72900390625	-427.4221191406251	51.6046714782715	-1048.408447265625	-214.7378997802735	51.60755157470705	-1064.48583984375	-222.3780975341797	56.85126113891603	-1113.326171875	-267.9132690429688	41.93201065063477	-1159.786376953125	-385.5863037109376	570.9321289062501	-690.4613647460939	-320.6572875976563	570.5994873046876	-688.6469726562501	-306.6896362304688	595.2634887695314	-709.4425048828126	-271.5061645507813	504.2022094726564	-674.2158203125001	-166.4628448486328	408.8113098144532	-689.0170288085939	-133.7256164550782	401.2156982421876	-805.5339355468752	-161.5480651855469	266.9787597656251	-750.6012573242189	-245.2301330566407	224.0457611083985	-692.1804199218751	-218.1326599121094	205.0589447021485	-726.1781005859376	-247.3174743652344	170.9972534179688	-764.9743041992189	-364.5114746093751	92.2769241333008	-726.9893798828126	-325.9296569824219	106.0803833007813	-808.847106933594	-419.7181396484376	52.58847808837892	-784.308288574219	-208.6207885742188	57.5721778869629	-760.0236206054689	-216.7386932373047	58.15425491333009	-718.7396850585939	-257.8140258789063	36.04059600830079	-670.2973022460939	-23.60734367370606	1160.126220703125	-830.1694946289065	
618	3.085	113.0487060546875	1149.57275390625	-909.8035278320315	-72.75647735595705	1150.845092773438	-982.7384033203127	-166.1200866699219	1081.233154296875	-923.9478759765627	-401.1332397460939	858.6780395507815	-913.5903320312502	-90.24924468994142	942.3112792968752	-916.3380126953127	-82.14765930175783	995.8974609375002	-1069.449584960938	-187.2171936035157	911.641784667969	-1249.0986328125	-191.8212280273438	863.422058105469	-1237.531494140625	-222.0351257324219	866.0012817382815	-1290.21435546875	-277.9832458496094	801.483581542969	-1315.850219726563	-345.0282897949219	858.3212890625002	-1287.779296875	-419.0671386718751	697.5884399414064	-1129.837524414063	-391.2906494140626	636.1934204101564	-1165.914916992188	-384.4969177246095	679.7564697265626	-1075.6806640625	-89.0424041748047	1004.5	-765.1326904296876	-202.4629974365235	939.319519042969	-592.4778442382814	-210.7550506591797	889.4323730468752	-594.4653930664064	-244.9148712158204	904.822204589844	-546.7876586914064	-291.5841979980469	855.3601684570315	-514.9318847656251	-368.3381958007813	888.6468505859377	-537.8493652343751	-405.051483154297	702.1959838867189	-702.8256225585939	-369.6373291015626	653.8714599609376	-655.9389648437501	-359.5349731445313	689.4663696289064	-752.2904052734376	-370.0805358886719	644.2105102539064	-1025.643676757813	-362.8177795410157	665.2371826171876	-792.5234375000002	-477.4921264648439	770.7882080078127	-911.6624145507815	-502.775115966797	748.7840576171876	-937.031921386719	-500.5690002441407	750.9746704101564	-879.7568969726565	-358.2294006347657	544.4497680664064	-1132.414184570313	-278.0088500976563	525.1903076171876	-1145.820922851563	-252.8631134033204	559.3778076171876	-1119.284790039063	-251.5875549316407	472.5776977539064	-1156.119873046875	-173.9609680175782	406.9166564941407	-1150.746704101563	-131.8777770996094	398.3085937500001	-1032.550048828125	-149.289779663086	281.3526916503907	-1111.20654296875	-224.6904907226563	267.1538696289063	-1156.102172851563	-193.023422241211	247.5853424072266	-1134.406005859375	-234.3314208984376	185.6862182617188	-1097.6171875	-371.9250183105469	92.16005706787111	-1102.96484375	-331.3905639648438	101.1858825683594	-1021.705688476563	-427.400115966797	51.60525131225587	-1048.37744140625	-214.7226257324219	51.60437011718751	-1064.491333007813	-222.3015136718751	56.85206222534181	-1113.279174804688	-267.8747253417969	41.91197967529298	-1159.80224609375	-385.7601013183595	570.0347290039064	-690.4353637695314	-320.6942443847657	569.9596557617189	-688.6665649414064	-306.8251037597657	594.7351074218751	-709.4987182617189	-271.3851623535157	503.7503967285157	-674.1937866210939	-166.1228179931641	408.6499328613282	-689.0013427734376	-133.6089172363282	401.2327880859376	-805.6094360351565	-161.3818817138672	266.8119506835938	-750.6854248046876	-245.0346984863282	223.9967193603516	-692.2460937500001	-217.9320983886719	204.9649353027344	-726.2355346679689	-247.2397460937501	170.8479461669922	-765.0346679687501	-364.5015869140626	92.34071350097658	-727.0028686523439	-325.8219604492188	106.1751403808594	-808.8850708007815	-419.5988769531251	52.6561851501465	-784.3851318359377	-208.6131744384766	57.5851173400879	-760.0179443359376	-216.8514556884766	58.01343917846681	-718.8669433593751	-257.7945251464844	36.00420761108399	-670.3333740234376	-23.1098747253418	1158.675659179688	-830.3696289062502	
619	3.09	113.6739654541016	1147.8896484375	-909.7581176757815	-72.1271438598633	1149.203491210938	-982.8768310546877	-165.74853515625	1079.841674804688	-923.774108886719	-400.9911499023439	857.5168457031252	-913.462585449219	-89.87566375732423	940.7673339843752	-916.201599121094	-82.57789611816408	994.425231933594	-1069.588012695313	-186.6810607910157	910.2391357421877	-1248.865844726563	-191.8836517333985	861.9790649414065	-1237.493774414063	-221.7683258056641	864.7254028320315	-1290.1748046875	-278.3760681152344	800.3122558593752	-1315.966186523438	-344.7037658691407	857.555114746094	-1287.722900390625	-419.7160034179689	696.8142700195314	-1129.790893554688	-391.7189025878907	635.1856689453126	-1165.762939453125	-385.3147888183595	678.8083496093751	-1075.732666015625	-88.58745574951173	1003.108947753906	-765.0386962890626	-202.2157592773438	938.114685058594	-592.5328369140626	-210.4595947265626	888.1494750976565	-594.4797973632814	-244.5048065185547	903.6453247070315	-546.6314697265626	-291.3356933593751	854.2888183593752	-515.0062866210939	-368.0598144531251	887.941833496094	-537.6685180664064	-405.2055664062501	701.3786621093751	-702.7762451171876	-369.8776855468751	652.9028320312501	-655.9395141601564	-360.1874084472657	688.6271362304689	-752.5451660156251	-371.1559753417969	642.4554443359376	-1025.6826171875	-363.5473327636719	663.3085937500001	-792.5417480468752	-477.6310119628907	769.7139892578127	-911.4700927734377	-503.0369873046876	747.9381103515626	-936.988952636719	-500.7069396972657	750.1459960937501	-879.650573730469	-358.4929809570313	543.9724731445314	-1132.448608398438	-278.3854064941407	524.8766479492189	-1145.82666015625	-253.1170196533204	559.0186157226564	-1119.171020507813	-251.7356719970704	472.2447204589845	-1156.076904296875	-173.8376617431641	406.7529602050782	-1150.816528320313	-131.7496948242188	398.2013244628907	-1032.544555664063	-149.1952514648438	281.2446594238282	-1111.196899414063	-224.4357604980469	266.9698791503907	-1156.131103515625	-192.8797607421876	247.5332336425782	-1134.342895507813	-234.3061523437501	185.6620635986328	-1097.6796875	-371.8140258789063	92.1156692504883	-1102.96923828125	-331.3436889648438	101.1625671386719	-1021.725830078125	-427.4238281250001	51.59209442138673	-1048.372924804688	-214.7396392822266	51.60196685791017	-1064.483032226563	-222.3370819091797	56.82936096191408	-1113.316284179688	-267.9527587890626	41.94163513183594	-1159.788818359375	-385.7713623046876	569.3306274414064	-690.3111572265626	-320.7614135742188	569.5151977539064	-688.5339355468751	-306.9621582031251	594.1799926757814	-709.5742187500001	-271.3652648925782	503.260467529297	-674.2850341796876	-165.8375701904297	408.5027465820314	-689.0975952148439	-133.3587036132813	401.0184936523439	-805.783386230469	-161.2579345703125	266.6599731445313	-750.7261962890626	-244.8407592773438	223.9176025390626	-692.2819213867189	-217.6604156494141	204.8351593017579	-726.3244018554689	-245.7694091796876	170.8615875244141	-764.7613525390626	-364.4629821777344	92.3246536254883	-727.0692749023439	-325.7442016601563	106.1749877929688	-808.8399047851565	-419.5670471191407	52.55484771728517	-784.3364257812502	-208.5582427978516	57.57122802734376	-760.0278930664064	-216.8599548339844	58.03863525390626	-718.8771362304689	-257.7434692382813	36.03518295288087	-670.3296508789064	-22.48837661743164	1157.015625	-830.356384277344	
